<svg viewBox="0 0 520 160" xmlns="http://www.w3.org/2000/svg"> <g transform="translate(10,20)"> <path d="M0 60 C20 40,60 40,80 60 L80 90 C60 75,20 75,0 90 Z" fill="#1f3c88"/> <path d="M80 60 C100 40,140 40,160 60 L160 90 C140 75,100 75,80 90 Z" fill="#d32f2f"/> <polygon points="80,0 70,60 90,60" fill="#1f3c88"/> <rect x="72" y="60" width="16" height="40" fill="#1f3c88"/> <path d="M135 35 L140 20 L150 30 L155 25 L152 40 L165 45 L150 50 L148 65 L140 55 L132 65 L130 50 L115 45 L130 40 L125 25 L130 30 Z" fill="#d32f2f"/> </g> <text x="200" y="70" font-size="44" font-weight="700" fill="#1f3c88"> YORK-CENTRE </text> <text x="200" y="115" font-size="26" letter-spacing="2" fill="#d32f2f"> FRENCH INSTITUTE </text> </svg>